HIERARCHY
ROOT Hips
{
	OFFSET -3.958830 18.904000 13.208200
	CHANNELS 6 Xposition Yposition Zposition Zrotation Yrotation Xrotation 
	JOINT LHipJoint
	{
		OFFSET 0.000000 0.000000 0.000000
		CHANNELS 3 Zrotation Yrotation Xrotation
		JOINT LeftUpLeg
		{
			OFFSET 1.800000 -1.400000 0.085000
			CHANNELS 3 Zrotation Yrotation Xrotation
			JOINT LeftLeg
			{
				OFFSET 2.215000 -6.000000 0.000000
				CHANNELS 3 Zrotation Yrotation Xrotation
				JOINT LeftFoot
				{
					OFFSET 2.500000 -6.900000 0.000000
					CHANNELS 3 Zrotation Yrotation Xrotation
					JOINT LeftToeBase
					{
						OFFSET 0.200000 -0.500000 1.950000
						CHANNELS 3 Zrotation Yrotation Xrotation
						End Site
						{
							OFFSET 0.000000 0.000000 0.000000
						}
					}
				}
			}
		}
	}
	JOINT RHipJoint
	{
		OFFSET 0.000000 0.000000 0.000000
		CHANNELS 3 Zrotation Yrotation Xrotation
		JOINT RightUpLeg
		{
			OFFSET -1.800000 -1.400000 0.085000
			CHANNELS 3 Zrotation Yrotation Xrotation
			JOINT RightLeg
			{
				OFFSET -2.215000 -6.000000 0.000000
				CHANNELS 3 Zrotation Yrotation Xrotation
				JOINT RightFoot
				{
					OFFSET -2.500000 -6.900000 0.000000
					CHANNELS 3 Zrotation Yrotation Xrotation
					JOINT RightToeBase
					{
						OFFSET -0.200000 -0.500000 1.950000
						CHANNELS 3 Zrotation Yrotation Xrotation
						End Site
						{
							OFFSET 0.000000 0.000000 0.000000
						}
					}
				}
			}
		}
	}
	JOINT LowerBack
	{
		OFFSET 0.000000 0.000000 0.000000
		CHANNELS 3 Zrotation Yrotation Xrotation
		JOINT Spine
		{
			OFFSET -0.087000 1.940000 -0.288900
			CHANNELS 3 Zrotation Yrotation Xrotation
			JOINT Spine1
			{
				OFFSET 0.000000 1.950000 0.060000
				CHANNELS 3 Zrotation Yrotation Xrotation
				JOINT Neck
				{
					OFFSET 0.000000 0.000000 0.000000
					CHANNELS 3 Zrotation Yrotation Xrotation
					JOINT Neck1
					{
						OFFSET 0.000000 1.600000 0.340000
						CHANNELS 3 Zrotation Yrotation Xrotation
						JOINT Head
						{
							OFFSET 0.000000 1.667000 -0.240000
							CHANNELS 3 Zrotation Yrotation Xrotation
							End Site
							{
								OFFSET 0.000000 0.000000 0.000000
							}
						}
					}
				}
				JOINT LeftShoulder
				{
					OFFSET 0.000000 0.000000 0.000000
					CHANNELS 3 Zrotation Yrotation Xrotation
					JOINT LeftArm
					{
						OFFSET 2.700000 1.550000 -0.730000
						CHANNELS 3 Zrotation Yrotation Xrotation
						JOINT LeftForeArm
						{
							OFFSET 5.450000 0.000000 0.000000
							CHANNELS 3 Zrotation Yrotation Xrotation
							JOINT LeftHand
							{
								OFFSET 3.450000 0.000000 0.000000
								CHANNELS 3 Zrotation Yrotation Xrotation
								JOINT LeftHandIndex1
								{
									OFFSET 0.750000 0.000000 0.000000
									CHANNELS 3 Zrotation Yrotation Xrotation
									End Site
									{
										OFFSET 0.000000 0.000000 0.000000
									}
								}
							}
						}
					}
				}
				JOINT RightShoulder
				{
					OFFSET 0.000000 0.000000 0.000000
					CHANNELS 3 Zrotation Yrotation Xrotation
					JOINT RightArm
					{
						OFFSET -2.700000 1.550000 -0.730000
						CHANNELS 3 Zrotation Yrotation Xrotation
						JOINT RightForeArm
						{
							OFFSET -5.450000 0.000000 0.000000
							CHANNELS 3 Zrotation Yrotation Xrotation
							JOINT RightHand
							{
								OFFSET -3.450000 0.000000 0.000000
								CHANNELS 3 Zrotation Yrotation Xrotation
								JOINT RightHandIndex1
								{
									OFFSET -0.750000 0.000000 0.000000
									CHANNELS 3 Zrotation Yrotation Xrotation
									End Site
									{
										OFFSET 0.000000 0.000000 0.000000
									}
								}
							}
						}
					}
				}
			}
		}
	}
}
MOTION
Frames: 8
Frame Time: 0.016667
-0.758690 16.924140 -6.083500 -0.549284 11.978257 4.271723 -14.876562 12.732641 3.337073 -5.368498 -4.327281 -20.097904 -1.735459 4.068843 18.457909 -0.234667 2.718228 3.485020 0.446100 0.396940 0.386730 18.539148 -10.564391 3.772438 -8.692792 6.186278 -35.242890 7.890821 -10.812577 45.050347 -0.772317 -6.525781 1.851867 0.196480 -0.274240 0.040120 -4.635483 -0.940796 -8.277208 19.058171 -8.189788 33.043208 -14.310173 -1.639829 3.004021 4.428485 -4.895433 -8.704164 -13.356848 -1.650305 43.331453 -0.133360 -6.511840 -13.661090 -30.434349 -12.956152 1.627447 -27.270472 -8.074754 -9.294048 -2.606801 -50.230280 -0.160302 -3.215330 3.249922 0.279240 -0.253430 0.250820 0.035980 20.548149 16.228834 7.421895 24.774146 2.184893 -10.237673 10.773706 49.067820 3.543346 2.311541 -1.507117 0.098680 0.059380 -0.190050 -0.070610 
-0.712520 16.896220 -6.140990 -0.383856 13.533429 2.451893 -14.846129 12.561691 3.176234 -5.154419 -4.021730 -18.406325 -2.530364 4.152770 17.265905 -0.228659 2.691970 3.495915 0.463270 0.412670 0.407690 18.617709 -10.432953 3.997962 -11.305597 6.272066 -37.391412 10.072446 -13.073147 48.330751 -0.975116 -7.454274 1.528728 0.195100 -0.307900 0.039290 -4.804942 -0.713000 -8.336435 20.869788 -10.563232 36.018468 -17.048782 -2.733505 3.591514 4.872021 -4.871943 -9.516978 -13.534807 -2.044707 42.907500 0.287410 -6.940680 -15.162880 -29.084522 -15.314581 2.023537 -21.322288 -7.828350 -9.358714 -4.539608 -51.887774 1.015252 -3.164137 3.307386 0.309310 -0.286600 0.280230 0.030290 18.279914 17.994450 8.506488 20.475569 1.023712 -9.381208 17.701099 49.202699 6.315382 2.334615 -1.538140 0.108150 0.057260 -0.199760 -0.076850 
-0.676740 16.851000 -6.169820 -0.168880 14.912226 0.827677 -14.821028 12.422453 3.037438 -4.765823 -3.645876 -16.481529 -3.685123 4.382673 16.262316 -0.214811 2.761324 3.469174 0.475250 0.424230 0.421340 18.680865 -10.369174 4.146037 -13.344052 6.087511 -38.785579 11.319042 -14.732188 50.791871 -1.127538 -8.147708 1.290158 0.197340 -0.328670 0.043020 -4.945569 -0.470543 -8.382531 21.869244 -12.280230 37.948779 -18.969099 -3.707968 4.257227 5.094808 -4.494882 -9.870186 -12.968323 -2.187888 43.109539 0.900480 -6.972030 -15.999870 -27.781829 -16.766172 2.199642 -16.481926 -7.659396 -9.176822 -7.070071 -52.723114 2.478586 -3.143465 3.362131 0.330890 -0.304620 0.298850 0.021720 16.522064 18.623288 8.971641 17.125346 0.587475 -8.517826 22.120731 48.530659 8.004780 2.353554 -1.550264 0.113690 0.051240 -0.201510 -0.083800 
-0.640370 16.811120 -6.192120 -0.037860 15.968375 -0.149569 -14.806345 12.303252 2.941391 -4.539660 -3.299720 -14.921254 -4.674118 4.566152 15.255862 -0.201718 2.831689 3.452451 0.470290 0.421030 0.421240 18.731056 -10.307688 4.267063 -14.629046 5.894737 -40.253047 11.678156 -15.672863 52.544845 -1.213983 -8.582201 1.148426 0.196610 -0.324830 0.043720 -5.046845 -0.278039 -8.425582 22.615724 -13.466020 39.010412 -20.308378 -4.402159 4.729223 5.285132 -3.992289 -9.931755 -11.994757 -2.379790 43.107246 1.096110 -6.783020 -16.115250 -27.185909 -17.710840 2.191710 -12.977398 -7.791223 -8.979300 -8.240432 -52.870547 3.295964 -3.152650 3.388666 0.335380 -0.300780 0.300230 0.017590 15.509673 18.766679 9.216335 14.940834 0.218939 -7.914909 23.089126 47.624393 8.322161 2.354718 -1.546452 0.108880 0.055910 -0.196200 -0.086860 
-0.612560 16.789710 -6.213350 0.299427 16.710515 -0.945566 -14.803169 12.243975 2.905788 -4.467488 -3.028983 -13.451528 -5.728275 4.775151 14.448010 -0.174081 2.926709 3.423361 0.477220 0.428090 0.423980 18.755940 -10.276743 4.300621 -15.455423 5.611016 -41.033206 11.385972 -15.975093 53.662321 -1.257544 -8.782118 1.081947 0.197720 -0.332510 0.041460 -5.095308 -0.196216 -8.452983 22.721160 -14.476154 40.374979 -21.040385 -5.148925 4.837324 5.277367 -4.020548 -10.082498 -12.089278 -2.177459 42.947643 1.730910 -6.729940 -16.752500 -26.985244 -18.518724 2.299054 -10.798268 -7.623648 -9.045525 -7.567982 -52.354149 3.095770 -3.134753 3.406620 0.349340 -0.313780 0.309340 0.018190 15.297672 19.275402 9.460654 13.316325 -0.043192 -7.704218 21.508514 46.780393 7.748865 2.348380 -1.529934 0.109670 0.057560 -0.199040 -0.088030 
-0.581150 16.787840 -6.223260 0.593315 17.127330 -1.647496 -14.801646 12.235462 2.885520 -4.366306 -2.762290 -12.114734 -6.448102 4.935006 13.866384 -0.139730 3.015877 3.398548 0.483400 0.436660 0.430740 18.768108 -10.267484 4.293566 -15.838832 5.416519 -41.335333 10.833366 -16.038520 54.636096 -1.290532 -8.902138 1.044201 0.196500 -0.343030 0.035430 -5.121856 -0.178999 -8.460371 22.832801 -15.384891 41.585419 -21.499913 -5.842420 4.761618 5.278665 -4.405498 -10.232327 -12.971457 -1.756241 43.027645 1.795170 -6.688320 -17.270320 -27.335694 -19.089015 2.435698 -9.865203 -7.440456 -9.273420 -5.635692 -51.543196 2.228560 -3.112085 3.406143 0.359190 -0.329160 0.321380 0.019560 15.608399 19.902645 9.654800 11.957632 -0.141170 -7.624628 19.480692 45.947089 7.036265 2.348282 -1.507076 0.113080 0.063920 -0.205130 -0.086560 
-0.542130 16.786160 -6.222470 0.829018 17.193859 -1.678681 -14.790807 12.186150 2.888412 -4.311662 -2.564748 -11.180535 -7.477466 5.085451 12.917754 -0.100046 3.084489 3.384761 0.476200 0.430190 0.413190 18.795003 -10.250319 4.290662 -16.143316 5.230062 -41.942858 10.016353 -15.883308 55.385305 -1.291204 -8.956719 1.030746 0.188240 -0.336450 0.030080 -5.168109 -0.126069 -8.472491 23.346852 -16.063579 41.702009 -22.083939 -6.288231 4.486867 5.261372 -4.899579 -10.348986 -14.064070 -1.550408 42.880092 2.174450 -7.165170 -17.106780 -27.900261 -19.310049 2.530722 -10.014442 -7.482832 -9.430481 -3.274390 -50.610827 1.195887 -3.101504 3.402015 0.352590 -0.333820 0.315200 0.025970 16.132440 20.339915 9.835386 11.073942 -0.453189 -7.582671 17.843912 45.483838 6.501950 2.350528 -1.502949 0.116820 0.064400 -0.204320 -0.075090 
-0.512730 16.783950 -6.211550 1.231180 17.348173 -1.301069 -14.780386 12.126995 2.909656 -4.215145 -2.502477 -10.706615 -8.727763 5.287941 12.248971 -0.067041 3.184722 3.358135 0.471850 0.424310 0.399610 18.820593 -10.246496 4.265648 -16.145991 5.036023 -42.636322 8.616588 -15.398623 56.168543 -1.275835 -8.951852 1.033653 0.185370 -0.324660 0.030180 -5.213406 -0.064761 -8.479144 23.660799 -16.431104 41.168692 -22.569950 -6.623974 4.344306 5.230626 -5.290798 -10.303192 -14.834464 -1.334886 42.609501 2.305460 -7.413580 -16.796550 -28.352299 -19.215005 2.515280 -10.326156 -7.618144 -9.471396 -2.031731 -49.946568 0.666038 -3.104428 3.402478 0.343520 -0.329560 0.305440 0.032900 16.582832 20.367185 9.863375 11.061617 -0.403411 -7.490124 16.579412 44.892342 6.028174 2.352272 -1.498214 0.117600 0.064690 -0.202290 -0.066880 
